# xmcd
#
# Track frame offsets: 
#        150
#        14713
#        30327
#        45588
#        59876
#        73568
#        88699
#        106744
#        122062
#        136483
#        148745
#        163964
#        178460
#
# Disc length: 2620 seconds
#
# Revision: 0
# Processed by: cddbd v1.5.2PL0 Copyright (c) Steve Scherf et al.
# Submitted via: ExactAudioCopyFreeDBPlugin 1.0
#
DISCID=c40a3a0d
DTITLE=Les Bouches Bées - Au fil des avenues
DYEAR=2015
DGENRE=Country
TTITLE0=Au fil des avenues
TTITLE1=Les restes du naufrage
TTITLE2=Laisse aller
TTITLE3=Tout ira bien
TTITLE4=Belle
TTITLE5=Je t’oublierai, je t’oublierai
TTITLE6=Vieillir avec toi
TTITLE7=Jusqu’à l’os
TTITLE8=Emmène-moi
TTITLE9=Et il s’en va
TTITLE10=Tchou tchou
TTITLE11=Quand tu me vois
TTITLE12=Avant la traversée
EXTD=
EXTT0=
EXTT1=
EXTT2=
EXTT3=
EXTT4=
EXTT5=
EXTT6=
EXTT7=
EXTT8=
EXTT9=
EXTT10=
EXTT11=
EXTT12=
PLAYORDER=
